<svg width="33" height="33" viewBox="0 0 33 33" fill="none" xmlns="http://www.w3.org/2000/svg">
<path fill-rule="evenodd" clip-rule="evenodd" d="M0.821574 0.00440379C0.638645 0.0375909 0.46859 0.121138 0.330496 0.245615C0.192403 0.370091 0.0917401 0.53054 0.0398087 0.709055C-0.0121227 0.887569 -0.0132667 1.07705 0.0365052 1.25617C0.0862771 1.4353 0.184994 1.59702 0.321574 1.72315L14.6028 16.0044L0.321574 30.2857C0.227142 30.378 0.151824 30.4879 0.0999207 30.6094C0.0480178 30.7308 0.0205497 30.8613 0.0190797 30.9934C0.0176096 31.1254 0.0421662 31.2565 0.0913529 31.379C0.14054 31.5016 0.21339 31.6133 0.305743 31.7077C0.398095 31.8021 0.508142 31.8774 0.629595 31.9293C0.751049 31.9811 0.881533 32.0086 1.01359 32.01C1.14565 32.0114 1.27669 31.9869 1.39924 31.9376C1.52179 31.8884 1.63345 31.8155 1.72782 31.7232L16.0403 17.4419L30.3216 31.7232C30.416 31.8155 30.5276 31.8884 30.6502 31.9376C30.7727 31.9869 30.9037 32.0114 31.0358 32.01C31.1679 32.0086 31.2983 31.9811 31.4198 31.9293C31.5413 31.8774 31.6513 31.8021 31.7437 31.7077C31.836 31.6133 31.9089 31.5016 31.958 31.379C32.0072 31.2565 32.0318 31.1254 32.0303 30.9934C32.0289 30.8613 32.0014 30.7308 31.9495 30.6094C31.8976 30.4879 31.8223 30.378 31.7278 30.2857L17.4466 16.0044L31.7278 1.72315C31.8725 1.58326 31.9716 1.40298 32.0121 1.20588C32.0527 1.00878 32.0329 0.80401 31.9553 0.618356C31.8776 0.432703 31.7458 0.274831 31.577 0.165292C31.4082 0.0557542 31.2103 -0.000328766 31.0091 0.00440379C30.7523 0.00641698 30.5061 0.10712 30.3216 0.285654L16.0403 14.5669L1.72782 0.285654C1.63262 0.1935 1.52006 0.121167 1.39667 0.0728852C1.27329 0.0246034 1.14154 0.00133498 1.00907 0.00440379C0.946712 -0.00146793 0.883936 -0.00146793 0.821574 0.00440379Z" fill="white"/>
</svg>
